<svg width="90" height="96" viewBox="0 0 90 96" fill="none" xmlns="http://www.w3.org/2000/svg">
<path d="M87.8216 67.8694C87.3928 66.6656 86.8916 65.501 86.4149 64.4219C85.6809 62.762 84.9123 61.0989 84.1688 59.4914L84.1099 59.3638C77.4787 45.0037 70.3612 30.4473 62.9557 16.0991L62.6413 15.4899C61.8858 14.0248 61.1049 12.5098 60.3034 11.0212C59.353 9.13738 58.1998 7.3625 56.8642 5.72802C55.3607 3.93441 53.4812 2.49189 51.3585 1.50219C49.2357 0.512488 46.9211 -0.000294057 44.5781 1.26509e-07C42.2351 0.00029431 39.9208 0.513656 37.7981 1.50389C35.6757 2.49413 33.7965 3.93713 32.2936 5.7311C30.9595 7.36596 29.8069 9.14045 28.8562 11.0234C28.0478 12.5253 27.2596 14.0543 26.4973 15.533L26.2054 16.099C18.7996 30.4482 11.6822 45.0046 5.05103 59.3635L4.95441 59.5724C4.22378 61.1539 3.46838 62.7892 2.74666 64.4213C2.26974 65.4995 1.76923 66.6632 1.33991 67.87C0.110295 71.1577 -0.28153 74.6988 0.199662 78.175C0.709957 81.688 2.13083 85.0073 4.32157 87.8037C6.5123 90.6 9.3969 92.7766 12.6896 94.1178C15.1767 95.124 17.836 95.6384 20.5196 95.6324C21.3626 95.6321 22.2049 95.5831 23.0422 95.4856C26.4364 95.0532 29.7099 93.9487 32.6707 92.2371C36.5546 90.0552 40.3903 86.8575 44.5805 82.2881C48.7707 86.8575 52.6065 90.0552 56.4903 92.2371C59.4511 93.949 62.7247 95.0532 66.1187 95.4856C66.9561 95.5831 67.7986 95.6321 68.6416 95.6324C71.325 95.6384 73.9839 95.124 76.4709 94.1178C79.7637 92.7766 82.6485 90.6 84.8394 87.8037C87.0303 85.0073 88.4513 81.6883 88.9617 78.175C89.4423 74.6985 89.0505 71.1574 87.8216 67.8694ZM44.5805 72.851C39.3934 66.2759 36.0648 60.1701 34.8969 55.0514C34.4184 53.1334 34.3054 51.1427 34.5639 49.1828C34.7681 47.7463 35.2958 46.3745 36.1075 45.1708C37.1063 43.8755 38.3898 42.8266 39.859 42.1048C41.3281 41.3834 42.9437 41.0081 44.5811 41.0081C46.2188 41.0084 47.8341 41.3837 49.3033 42.1057C50.7724 42.8275 52.0557 43.8764 53.0545 45.1717C53.8661 46.376 54.3939 47.7478 54.598 49.1846C54.8559 51.1454 54.7427 53.1366 54.2633 55.0553C53.0942 60.1734 49.7665 66.2774 44.5805 72.851ZM82.9031 77.3095C82.5463 79.7658 81.5526 82.0867 80.021 84.0417C78.4891 85.9971 76.4721 87.5192 74.1698 88.457C71.8417 89.3897 69.3153 89.7202 66.8252 89.4178C64.2369 89.0843 61.7424 88.2325 59.492 86.9131C56.0349 84.9709 52.5354 81.9892 48.5974 77.6152C54.8664 69.8852 58.781 62.7602 60.2305 56.4141C60.8829 53.7454 61.0242 50.9777 60.6474 48.257C60.3055 45.9131 59.4352 43.6771 58.1024 41.7175C56.5409 39.6035 54.5039 37.8848 52.1555 36.7004C49.8068 35.5161 47.2125 34.8989 44.5811 34.8989C41.95 34.8989 39.3554 35.5158 37.0067 36.6998C34.6581 37.8839 32.6211 39.6023 31.0596 41.7163C29.7269 43.6753 28.8568 45.9107 28.5146 48.254C28.1376 50.9739 28.2782 53.74 28.9291 56.4079C30.3776 62.7567 34.2926 69.8834 40.5637 77.6158C36.6257 81.9892 33.1262 84.9709 29.669 86.9134C27.4186 88.2325 24.9244 89.0845 22.336 89.4178C19.8457 89.7202 17.3192 89.3897 14.991 88.457C12.6887 87.5192 10.6717 85.9971 9.14001 84.042C7.6083 82.0867 6.61492 79.7658 6.25827 77.3095C5.91522 74.8126 6.20717 72.2697 7.10722 69.915C7.44934 68.9533 7.84972 68.0096 8.34572 66.8883C9.04742 65.302 9.79207 63.6897 10.5124 62.1306L10.6091 61.9211C17.2032 47.6426 24.2811 33.1671 31.6466 18.8962L31.9397 18.328C32.6895 16.8732 33.4651 15.3689 34.2475 13.9154C34.9958 12.4173 35.9016 11.0028 36.9497 9.69593C37.8782 8.57413 39.0437 7.67094 40.3625 7.05092C41.6817 6.43086 43.1215 6.1093 44.5793 6.10918C46.0371 6.10906 47.4773 6.43041 48.7961 7.05023C50.1153 7.67005 51.2808 8.57306 52.2096 9.6947C53.2583 11.0006 54.1644 12.4146 54.9121 13.9127C55.6873 15.3532 56.456 16.8439 57.1995 18.2854L57.5145 18.8968C64.8797 33.1662 71.9574 47.6414 78.5521 61.9223L78.6116 62.0508C79.3444 63.6362 80.102 65.2748 80.8153 66.8889C81.312 68.0117 81.7131 68.9563 82.0544 69.9144C82.9539 72.2694 83.2459 74.8123 82.9031 77.3095Z" fill="#590BD8"/>
</svg>
